<svg xmlns="http://www.w3.org/2000/svg" viewBox="0 0 216 62.9">
  <path fill="#141006" d="M94.6 45.6l-1.8-23.4-9.3 23.6h-3l-9.3-23.6-1.8 23.4h-3.8l2.3-29.5h5L82 40.3l9.2-24.2h4.9l2.3 29.5h-3.8zm20 0l-.4-2.7c-1.6 1.7-3.8 3.2-7.2 3.2-3.7 0-6-2.2-6-5.7 0-5.1 4.4-7.1 12.9-8v-.9c0-2.6-1.5-3.5-3.9-3.5-2.5 0-4.8.8-7 1.8l-.5-3.3c2.4-1 4.7-1.7 7.9-1.7 5 0 7.3 2 7.3 6.5v14.3h-3.1zm-.7-10.3c-7.5.7-9.1 2.8-9.1 4.9 0 1.7 1.1 2.7 3 2.7 2.2 0 4.4-1.1 6.1-2.9v-4.7zM139.5 25l.6 3.4-3.9.4c.6.9.8 2 .8 3.2 0 4.4-3.7 7-7.8 7-.5 0-1 0-1.5-.1-.6.4-1 .9-1 1.2 0 .7.7.9 4.3 1.5l1.5.3c4.3.8 7 2.1 7 5.3 0 4.3-4.7 6.3-9.9 6.3-5.3 0-9.5-1.7-9.5-5.2 0-2.1 1.5-3.7 4.3-5.3-.9-.6-1.3-1.4-1.3-2.1 0-1 .8-2 2.1-2.8-2.3-1.1-3.8-3.3-3.8-6.1 0-4.4 3.7-7.1 7.8-7.1 2 0 3.8.6 5.3 1.7l5-1.6zm-16 22.8c0 1.6 2.1 2.8 6.1 2.8 4 0 6.2-1.4 6.2-3.1 0-1.2-.9-2.1-3.8-2.6l-2.4-.4c-1.1-.2-1.7-.3-2.5-.5-2.5 1.2-3.6 2.4-3.6 3.8zm5.6-20.2c-2.6 0-4.1 2-4.1 4.4 0 2.3 1.6 4.2 4.1 4.2 2.6 0 4.2-1.9 4.2-4.4 0-2.4-1.7-4.2-4.2-4.2zm28.5 8.3h-13.8c.1 4.7 2.4 7 5.9 7 2.9 0 5.1-1.2 7.3-2.9l.6 3.4c-2.2 1.7-4.8 2.7-8.2 2.7-5.3 0-9.4-3.2-9.4-10.7 0-6.5 3.8-10.5 9-10.5 5.9 0 8.7 4.6 8.7 10.2-.1.2-.1.5-.1.8zm-8.7-8.1c-2.3 0-4.4 1.7-5 5.2h9.8c-.4-3.3-1.9-5.2-4.8-5.2zm24.7 17.8V31.8c0-2.1-.9-3.5-3.1-3.5-2 0-4.1 1.3-5.9 3.3v14.1h-3.8V25.3h3l.5 2.9c1.9-1.7 4.3-3.4 7.2-3.4 3.8 0 5.9 2.3 5.9 6v14.8h-3.8zm15 .4c-3.6 0-5.9-1.3-5.9-5.4V28.5h-3.1v-3.2h3.1v-6.8l3.7-.6v7.3h4.4l.5 3.2h-4.9v11.4c0 1.7.7 2.7 2.8 2.7.7 0 1.3 0 1.7-.1l.5 3.2c-.5.2-1.4.4-2.8.4zm12.6.1c-5.4 0-9.4-3.9-9.4-10.6 0-6.7 3.9-10.6 9.4-10.6s9.5 3.9 9.5 10.6c0 6.7-4 10.6-9.5 10.6zm0-18.1c-3.7 0-5.5 3.2-5.5 7.4s1.9 7.4 5.5 7.4c3.8 0 5.6-3.2 5.6-7.4.1-4.1-1.9-7.4-5.6-7.4zm12.2.3c-1.5 0-2.6-1.1-2.6-2.6 0-1.6 1.1-2.7 2.6-2.7s2.6 1.1 2.6 2.7c0 1.5-1.1 2.6-2.6 2.6zm0-5c-1.2 0-2.2.8-2.2 2.3 0 1.5 1 2.3 2.2 2.3 1.2 0 2.2-.8 2.2-2.3 0-1.4-1-2.3-2.2-2.3zm.8 3.8l-.9-1.3h-.3V27h-.5v-2.9h.9c.6 0 1 .3 1 .9 0 .4-.2.7-.6.8l.8 1.2-.4.1zm-.8-2.5h-.4v.9h.4c.3 0 .5-.1.5-.4 0-.4-.2-.5-.5-.5z"/>
  <g fill="#EE672F">
    <path d="M54.5 15.7v31.5l-7.8 4.5V20.2L27.2 9 7.8 20.2v31.5L0 47.2V15.7L27.2 0"/>
    <path d="M27.2 62.9l-11.6-6.7V24.7l7.8-4.5v31.5l3.8 2.4 3.9-2.4V20.2l7.8 4.5v31.5"/>
  </g>
</svg>
